<?xml version="1.0" encoding="UTF-8" standalone="no"?>
<svg
   xmlns:dc="http://purl.org/dc/elements/1.1/"
   xmlns:cc="http://creativecommons.org/ns#"
   xmlns:rdf="http://www.w3.org/1999/02/22-rdf-syntax-ns#"
   xmlns:svg="http://www.w3.org/2000/svg"
   xmlns="http://www.w3.org/2000/svg"
   viewBox="0 0 721.27997 386.55997"
   height="386.55997"
   width="721.27997"
   xml:space="preserve"
   id="svg2"
   version="1.1"><metadata
     id="metadata8"><rdf:RDF><cc:Work
         rdf:about=""><dc:format>image/svg+xml</dc:format><dc:type
           rdf:resource="http://purl.org/dc/dcmitype/StillImage" /><dc:title></dc:title></cc:Work></rdf:RDF></metadata><defs
     id="defs6"><clipPath
       id="clipPath18"
       clipPathUnits="userSpaceOnUse"><path
         style="clip-rule:evenodd"
         id="path16"
         d="M 0,0 H 2254.1667 V 1206.6245 H 0 Z" /></clipPath><clipPath
       id="clipPath32"
       clipPathUnits="userSpaceOnUse"><path
         style="clip-rule:evenodd"
         id="path30"
         d="M 0,0 H 2254.1667 V 1203.6229 H 0 Z" /></clipPath><clipPath
       id="clipPath56"
       clipPathUnits="userSpaceOnUse"><path
         style="clip-rule:evenodd"
         id="path54"
         d="M 42.021751,453.23459 H 798.41329 V 585.30292 H 42.021751 Z" /></clipPath><clipPath
       id="clipPath74"
       clipPathUnits="userSpaceOnUse"><path
         style="clip-rule:evenodd"
         id="path72"
         d="M 0,0 H 2254.1667 V 1203.6229 H 0 Z" /></clipPath><clipPath
       id="clipPath86"
       clipPathUnits="userSpaceOnUse"><path
         style="clip-rule:evenodd"
         id="path84"
         d="M 42.021751,609.31537 H 798.41329 V 1035.536 H 42.021751 Z" /></clipPath><clipPath
       id="clipPath128"
       clipPathUnits="userSpaceOnUse"><path
         style="clip-rule:evenodd"
         id="path126"
         d="M 0,0 H 2254.1667 V 1203.6229 H 0 Z" /></clipPath><clipPath
       id="clipPath154"
       clipPathUnits="userSpaceOnUse"><path
         style="clip-rule:evenodd"
         id="path152"
         d="M 192.09943,93.048157 H 648.33558 V 171.08855 H 192.09943 Z" /></clipPath><clipPath
       id="clipPath168"
       clipPathUnits="userSpaceOnUse"><path
         style="clip-rule:evenodd"
         id="path166"
         d="M 0,0 H 2254.1667 V 1203.6229 H 0 Z" /></clipPath><clipPath
       id="clipPath184"
       clipPathUnits="userSpaceOnUse"><path
         style="clip-rule:evenodd"
         id="path182"
         d="m 1080.5593,315.16312 h 795.4116 v 480.24857 h -795.4116 z" /></clipPath><clipPath
       id="clipPath234"
       clipPathUnits="userSpaceOnUse"><path
         style="clip-rule:evenodd"
         id="path232"
         d="M 0,0 H 2254.1667 V 1203.6229 H 0 Z" /></clipPath></defs><g
     transform="matrix(0.31999998,0,0,0.31999998,0,6.330666e-6)"
     id="g10"><g
       id="g12"><g
         clip-path="url(#clipPath18)"
         id="g14"><g
           transform="scale(3.0015535)"
           id="g20"><path
             id="path22"
             style="fill:#ffffff;fill-opacity:1;fill-rule:nonzero;stroke:none"
             d="M 0,0 H 751 V 402 H 0 Z" /><path
             id="path24"
             style="fill:#ffffff;fill-opacity:1;fill-rule:nonzero;stroke:none"
             d="M 0,0 H 751 V 401 H 0 Z" /></g></g></g><g
       id="g26"><g
         clip-path="url(#clipPath32)"
         id="g28"><g
           transform="matrix(3.0015535,0,0,3.0015535,1.5007768,1.5007768)"
           id="g34"><path
             id="path36"
             style="fill:#ffffff;fill-opacity:1;fill-rule:nonzero;stroke:none"
             d="m 10,146 v -26 h 260 v 26" /><path
             id="path38"
             style="fill:none;stroke:#000000;stroke-width:1;stroke-linecap:butt;stroke-linejoin:miter;stroke-miterlimit:10;stroke-dasharray:none;stroke-opacity:1"
             d="m 10,146 v -26 h 260 v 26" /><path
             id="path40"
             style="fill:none;stroke:#000000;stroke-width:1;stroke-linecap:butt;stroke-linejoin:miter;stroke-miterlimit:10;stroke-dasharray:none;stroke-opacity:1"
             d="M 10,146 V 340 H 270 V 146" /><path
             id="path42"
             style="fill:none;stroke:#000000;stroke-width:1;stroke-linecap:butt;stroke-linejoin:miter;stroke-miterlimit:10;stroke-dasharray:none;stroke-opacity:1"
             d="M 10,146 H 270" /></g><g
           transform="scale(3.0015535)"
           id="g44"><text
             id="text48"
             style="font-variant:normal;font-weight:bold;font-size:12px;font-family:Arimo;-inkscape-font-specification:Arimo-Bold;writing-mode:lr-tb;fill:#000000;fill-opacity:1;fill-rule:nonzero;stroke:none"
             transform="translate(123.32422,138)"><tspan
               id="tspan46"
               y="0"
               x="0 9.3339844 16.007812 26.677734">Game</tspan></text>
</g></g></g><g
       id="g50"><g
         clip-path="url(#clipPath56)"
         id="g52"><g
           transform="scale(3.0015535)"
           id="g58"><text
             id="text62"
             style="font-variant:normal;font-weight:normal;font-size:12px;font-family:Arimo;-inkscape-font-specification:Arimo;writing-mode:lr-tb;fill:#000000;fill-opacity:1;fill-rule:nonzero;stroke:none"
             transform="translate(16,164)"><tspan
               id="tspan60"
               y="0"
               x="0 3.9960938 7.3300781 13.330078 20.003906 24 27.996094 34.669922 41.34375 44.677734 51.351562 57.351562 60.685547 67.359375 70.693359 77.367188 80.701172 84.035156 93.369141 100.04297 110.03906 116.71289 124.7168 128.05078 134.72461 138.05859">- current_state: GameState</tspan></text>
<text
             id="text66"
             style="font-variant:normal;font-weight:normal;font-size:12px;font-family:Arimo;-inkscape-font-specification:Arimo;writing-mode:lr-tb;fill:#000000;fill-opacity:1;fill-rule:nonzero;stroke:none"
             transform="translate(16,178)"><tspan
               id="tspan64"
               y="0"
               x="0 3.9960938 7.3300781 14.003906 16.669922 23.34375 29.34375 36.017578 40.013672 46.6875 53.361328 60.035156 70.03125 76.705078 80.039062 83.373047 91.376953 94.710938 98.707031 101.37305 108.04688">- player_name: String</tspan></text>
</g></g></g><g
       id="g68"><g
         clip-path="url(#clipPath74)"
         id="g70"><g
           transform="matrix(3.0015535,0,0,3.0015535,1.5007768,1.5007768)"
           id="g76"><path
             id="path78"
             style="fill:none;stroke:#000000;stroke-width:1;stroke-linecap:butt;stroke-linejoin:miter;stroke-miterlimit:10;stroke-dasharray:none;stroke-opacity:1"
             d="M 10,194 H 270" /></g></g></g><g
       id="g80"><g
         clip-path="url(#clipPath86)"
         id="g82"><g
           transform="scale(3.0015535)"
           id="g88"><text
             id="text92"
             style="font-variant:normal;font-weight:normal;font-size:12px;font-family:Arimo;-inkscape-font-specification:Arimo;writing-mode:lr-tb;fill:#000000;fill-opacity:1;fill-rule:nonzero;stroke:none"
             transform="translate(16,216)"><tspan
               id="tspan90"
               y="0"
               x="0 7.0078125 10.341797 16.341797 23.015625 26.349609 33.023438 39.023438 45.697266 49.693359 53.689453 60.363281 67.037109 70.371094 77.044922 83.044922 86.378906 93.052734 96.386719 103.06055 107.05664 113.05664 119.73047 123.72656 127.72266 134.39648 141.07031 144.4043 151.07812 157.07812 160.41211 167.08594 170.41992 177.09375 180.42773 183.76172 193.0957 199.76953 209.76562 216.43945 224.44336 227.77734 234.45117 237.78516 244.45898">+ set_current_state(current_state: GameState)</tspan></text>
<text
             id="text96"
             style="font-variant:normal;font-weight:normal;font-size:12px;font-family:Arimo;-inkscape-font-specification:Arimo;writing-mode:lr-tb;fill:#000000;fill-opacity:1;fill-rule:nonzero;stroke:none"
             transform="translate(16,230)"><tspan
               id="tspan94"
               y="0"
               x="0 7.0078125 10.341797 17.015625 23.689453 27.023438 33.697266 40.371094 43.037109 49.710938 55.710938 62.384766 66.380859 73.054688 79.728516 86.402344 96.398438 103.07227 107.06836 111.06445 114.39844 117.73242 125.73633 129.07031 133.06641 135.73242 142.40625">+ get_player_name(): String</tspan></text>
<text
             id="text100"
             style="font-variant:normal;font-weight:normal;font-size:12px;font-family:Arimo;-inkscape-font-specification:Arimo;writing-mode:lr-tb;fill:#000000;fill-opacity:1;fill-rule:nonzero;stroke:none"
             transform="translate(16,244)"><tspan
               id="tspan98"
               y="0"
               x="0 7.0078125 10.341797 16.341797 23.015625 26.349609 33.023438 39.697266 42.363281 49.037109 55.037109 61.710938 65.707031 72.380859 79.054688 85.728516 95.724609 102.39844 106.39453 113.06836 115.73438 122.4082 128.4082 135.08203 139.07812 145.75195 152.42578 159.09961 169.0957 175.76953 179.10352 182.4375 190.44141 193.77539 197.77148 200.4375 207.11133 213.78516">+ set_player_name(player_name: String)</tspan></text>
<text
             id="text104"
             style="font-variant:normal;font-weight:normal;font-size:12px;font-family:Arimo;-inkscape-font-specification:Arimo;writing-mode:lr-tb;fill:#000000;fill-opacity:1;fill-rule:nonzero;stroke:none"
             transform="translate(16,258)"><tspan
               id="tspan102"
               y="0"
               x="0 7.0078125 10.341797 17.015625 23.689453 30.363281 36.363281 43.037109 49.037109 55.710938 62.384766 69.058594 77.724609 84.398438 88.394531 95.068359 101.06836 107.74219 114.41602 117.75 121.08398 124.41797 132.42188 138.42188 145.0957 151.76953 155.10352">+ on_key_down(event: Event)</tspan></text>
<text
             id="text108"
             style="font-variant:normal;font-weight:normal;font-size:12px;font-family:Arimo;-inkscape-font-specification:Arimo;writing-mode:lr-tb;fill:#000000;fill-opacity:1;fill-rule:nonzero;stroke:none"
             transform="translate(16,272)"><tspan
               id="tspan106"
               y="0"
               x="0 7.0078125 10.341797 17.015625 23.689453 30.363281 36.363281 43.037109 49.037109 55.710938 62.384766 69.058594 73.054688 79.728516 85.728516 92.402344 99.076172 102.41016 105.74414 109.07812 117.08203 123.08203 129.75586 136.42969 139.76367">+ on_key_up(event: Event)</tspan></text>
<text
             id="text112"
             style="font-variant:normal;font-weight:normal;font-size:12px;font-family:Arimo;-inkscape-font-specification:Arimo;writing-mode:lr-tb;fill:#000000;fill-opacity:1;fill-rule:nonzero;stroke:none"
             transform="translate(16,286)"><tspan
               id="tspan110"
               y="0"
               x="0 7.0078125 10.341797 17.015625 23.689453 30.363281 36.363281 39.029297 41.695312 47.695312 53.695312 57.691406 64.365234 71.039062 77.039062 79.705078 83.039062 85.705078 92.378906 99.052734 102.38672 105.7207 109.7168 112.38281 119.05664 122.39062 125.72461 129.05859 131.72461 138.39844 141.73242 145.72852">+ on_click(position: (int, int))</tspan></text>
<text
             id="text116"
             style="font-variant:normal;font-weight:normal;font-size:12px;font-family:Arimo;-inkscape-font-specification:Arimo;writing-mode:lr-tb;fill:#000000;fill-opacity:1;fill-rule:nonzero;stroke:none"
             transform="translate(16,300)"><tspan
               id="tspan114"
               y="0"
               x="0 7.0078125 10.341797 17.015625 23.689453 30.363281 37.037109 40.371094 47.044922 53.71875 59.71875 65.71875 69.714844 76.388672 83.0625 89.736328 93.732422">+ update_screen()</tspan></text>
<text
             id="text120"
             style="font-variant:normal;font-weight:normal;font-size:12px;font-family:Arimo;-inkscape-font-specification:Arimo;writing-mode:lr-tb;fill:#000000;fill-opacity:1;fill-rule:nonzero;stroke:none"
             transform="translate(16,314)"><tspan
               id="tspan118"
               y="0"
               x="0 7.0078125 10.341797 17.015625 23.689453 30.363281 37.037109 40.371094 47.044922 53.71875 60.392578 63.058594 69.732422 75.732422 82.40625 86.402344 92.402344 96.398438 102.39844 109.07227 113.06836 117.06445 123.73828 130.41211 133.74609 140.41992 147.09375 149.75977 156.43359 162.43359 169.10742 173.10352 176.4375 179.77148 188.4375 191.10352 197.10352 200.4375 203.10352 209.77734 216.45117 223.125 227.12109 233.12109">+ update_players(current_player: Dictionary)</tspan></text>
</g></g></g><g
       id="g122"><g
         clip-path="url(#clipPath128)"
         id="g124"><g
           transform="matrix(3.0015535,0,0,3.0015535,1.5007768,1.5007768)"
           id="g130"><path
             id="path132"
             style="fill:none;stroke:#000000;stroke-width:1;stroke-linecap:butt;stroke-linejoin:miter;stroke-miterlimit:10;stroke-dasharray:none;stroke-opacity:1"
             d="m 140,60 v 60" /><path
             id="path134"
             style="fill:#ffffff;fill-opacity:1;fill-rule:nonzero;stroke:none"
             d="M 60,26 V 0 h 160 v 26" /><path
             id="path136"
             style="fill:none;stroke:#000000;stroke-width:1;stroke-linecap:butt;stroke-linejoin:miter;stroke-miterlimit:10;stroke-dasharray:none;stroke-opacity:1"
             d="M 60,26 V 0 h 160 v 26" /><path
             id="path138"
             style="fill:none;stroke:#000000;stroke-width:1;stroke-linecap:butt;stroke-linejoin:miter;stroke-miterlimit:10;stroke-dasharray:none;stroke-opacity:1"
             d="M 60,26 V 60 H 220 V 26" /><path
             id="path140"
             style="fill:none;stroke:#000000;stroke-width:1;stroke-linecap:butt;stroke-linejoin:miter;stroke-miterlimit:10;stroke-dasharray:none;stroke-opacity:1"
             d="M 60,26 H 220" /></g><g
           transform="scale(3.0015535)"
           id="g142"><text
             id="text146"
             style="font-variant:normal;font-weight:bold;font-size:12px;font-family:Arimo;-inkscape-font-specification:Arimo-Bold;writing-mode:lr-tb;fill:#000000;fill-opacity:1;fill-rule:nonzero;stroke:none"
             transform="translate(126.33301,18)"><tspan
               id="tspan144"
               y="0"
               x="0 9.9960938 16.669922 20.003906">Main</tspan></text>
</g></g></g><g
       id="g148"><g
         clip-path="url(#clipPath154)"
         id="g150"><g
           transform="scale(3.0015535)"
           id="g156"><text
             id="text160"
             style="font-variant:normal;font-weight:normal;font-size:12px;font-family:Arimo;-inkscape-font-specification:Arimo;writing-mode:lr-tb;fill:#000000;fill-opacity:1;fill-rule:nonzero;stroke:none"
             transform="translate(66,44)"><tspan
               id="tspan158"
               y="0"
               x="0 7.0078125 10.341797 17.015625 23.689453 33.685547 40.359375 43.693359 47.027344 56.361328 63.035156 73.03125">+ game: Game</tspan></text>
</g></g></g><g
       id="g162"><g
         clip-path="url(#clipPath168)"
         id="g164"><g
           transform="matrix(3.0015535,0,0,3.0015535,1.5007768,1.5007768)"
           id="g170"><path
             id="path172"
             style="fill:none;stroke:#000000;stroke-width:1;stroke-linecap:butt;stroke-linejoin:miter;stroke-miterlimit:10;stroke-dasharray:none;stroke-opacity:1"
             d="M 60,56 H 220" /><path
             id="path174"
             style="fill:#ffffff;fill-opacity:1;fill-rule:nonzero;stroke:none"
             d="M 360,105 H 625 V 265 H 360 Z" /><path
             id="path176"
             style="fill:none;stroke:#000000;stroke-width:1;stroke-linecap:butt;stroke-linejoin:miter;stroke-miterlimit:10;stroke-dasharray:none;stroke-opacity:1"
             d="M 360,105 H 625 V 265 H 360 Z" /></g></g></g><g
       id="g178"><g
         clip-path="url(#clipPath184)"
         id="g180"><g
           transform="scale(3.0015535)"
           id="g186"><path
             id="path188"
             style="fill:#9a9a9a;fill-opacity:1;fill-rule:nonzero;stroke:none"
             d="m 360,144 h 265 v 1 H 360 Z" /><path
             id="path190"
             style="fill:#eeeeee;fill-opacity:1;fill-rule:nonzero;stroke:none"
             d="m 624,145 h 1 v -1" /><path
             id="path192"
             style="fill:#9a9a9a;fill-opacity:1;fill-rule:nonzero;stroke:none"
             d="m 360,144 h 1 v 1 h -1 z" /><path
             id="path194"
             style="fill:#9a9a9a;fill-opacity:1;fill-rule:nonzero;stroke:none"
             d="m 360,171 h 265 v 1 H 360 Z" /><path
             id="path196"
             style="fill:#eeeeee;fill-opacity:1;fill-rule:nonzero;stroke:none"
             d="m 624,172 h 1 v -1" /><path
             id="path198"
             style="fill:#9a9a9a;fill-opacity:1;fill-rule:nonzero;stroke:none"
             d="m 360,171 h 1 v 1 h -1 z" /><text
             id="text202"
             style="font-style:italic;font-variant:normal;font-size:12px;font-family:Arimo;-inkscape-font-specification:Arimo-Italic;writing-mode:lr-tb;fill:#000000;fill-opacity:1;fill-rule:nonzero;stroke:none"
             transform="translate(455.14063,120)"><tspan
               id="tspan200"
               y="0"
               x="0 7.0078125 14.015625 17.349609 24.023438 27.357422 34.03125 38.027344 41.361328 48.035156 54.035156 60.708984 67.716797">&lt;&lt;Interface&gt;&gt;</tspan></text>
<text
             id="text206"
             style="font-variant:normal;font-weight:bold;font-size:12px;font-family:Arimo;-inkscape-font-specification:Arimo-Bold;writing-mode:lr-tb;fill:#000000;fill-opacity:1;fill-rule:nonzero;stroke:none"
             transform="translate(461.15625,134)"><tspan
               id="tspan204"
               y="0"
               x="0 9.3339844 16.007812 26.677734 33.351562 41.355469 45.351562 52.025391 56.021484">GameState</tspan></text>
<text
             id="text210"
             style="font-variant:normal;font-weight:normal;font-size:12px;font-family:Arimo;-inkscape-font-specification:Arimo;writing-mode:lr-tb;fill:#000000;fill-opacity:1;fill-rule:nonzero;stroke:none"
             transform="translate(364,189)"><tspan
               id="tspan208"
               y="0"
               x="0 7.0078125 10.341797 17.015625 23.689453 30.363281 36.363281 43.037109 49.037109 55.710938 62.384766 69.058594 77.724609 84.398438 88.394531 95.068359 101.06836 107.74219 114.41602 117.75 121.08398 124.41797 132.42188 138.42188 145.0957 151.76953 155.10352">+ on_key_down(event: Event)</tspan></text>
<text
             id="text214"
             style="font-variant:normal;font-weight:normal;font-size:12px;font-family:Arimo;-inkscape-font-specification:Arimo;writing-mode:lr-tb;fill:#000000;fill-opacity:1;fill-rule:nonzero;stroke:none"
             transform="translate(364,204)"><tspan
               id="tspan212"
               y="0"
               x="0 7.0078125 10.341797 17.015625 23.689453 30.363281 36.363281 43.037109 49.037109 55.710938 62.384766 69.058594 73.054688 79.728516 85.728516 92.402344 99.076172 102.41016 105.74414 109.07812 117.08203 123.08203 129.75586 136.42969 139.76367">+ on_key_up(event: Event)</tspan></text>
<text
             id="text218"
             style="font-variant:normal;font-weight:normal;font-size:12px;font-family:Arimo;-inkscape-font-specification:Arimo;writing-mode:lr-tb;fill:#000000;fill-opacity:1;fill-rule:nonzero;stroke:none"
             transform="translate(364,218)"><tspan
               id="tspan216"
               y="0"
               x="0 7.0078125 10.341797 17.015625 23.689453 30.363281 36.363281 39.029297 41.695312 47.695312 53.695312 57.691406 64.365234 71.039062 77.039062 79.705078 83.039062 85.705078 92.378906 99.052734 102.38672 105.7207 109.7168 112.38281 119.05664 122.39062 125.72461 129.05859 131.72461 138.39844 141.73242 145.72852">+ on_click(position: (int, int))</tspan></text>
<text
             id="text222"
             style="font-variant:normal;font-weight:normal;font-size:12px;font-family:Arimo;-inkscape-font-specification:Arimo;writing-mode:lr-tb;fill:#000000;fill-opacity:1;fill-rule:nonzero;stroke:none"
             transform="translate(364,232)"><tspan
               id="tspan220"
               y="0"
               x="0 7.0078125 10.341797 17.015625 23.689453 30.363281 37.037109 40.371094 47.044922 53.71875 59.71875 65.71875 69.714844 76.388672 83.0625 89.736328 93.732422">+ update_screen()</tspan></text>
<text
             id="text226"
             style="font-variant:normal;font-weight:normal;font-size:12px;font-family:Arimo;-inkscape-font-specification:Arimo;writing-mode:lr-tb;fill:#000000;fill-opacity:1;fill-rule:nonzero;stroke:none"
             transform="translate(364,247)"><tspan
               id="tspan224"
               y="0"
               x="0 7.0078125 10.341797 17.015625 23.689453 30.363281 37.037109 40.371094 47.044922 53.71875 60.392578 63.058594 69.732422 75.732422 82.40625 86.402344 92.402344 96.398438 102.39844 109.07227 113.06836 117.06445 123.73828 130.41211 133.74609 140.41992 147.09375 149.75977 156.43359 162.43359 169.10742 173.10352 176.4375 179.77148 188.4375 191.10352 197.10352 200.4375 203.10352 209.77734 216.45117 223.125 227.12109 233.12109">+ update_players(current_player: Dictionary)</tspan></text>
</g></g></g><g
       id="g228"><g
         clip-path="url(#clipPath234)"
         id="g230"><g
           transform="matrix(3.0015535,0,0,3.0015535,1.5007768,1.5007768)"
           id="g236"><path
             id="path238"
             style="fill:none;stroke:#000000;stroke-width:1;stroke-linecap:butt;stroke-linejoin:miter;stroke-miterlimit:10;stroke-dasharray:none;stroke-opacity:1"
             d="M 380,320 V 292.5 H 492.5 V 273.12" /><path
             id="path240"
             style="fill:none;stroke:#000000;stroke-width:1;stroke-linecap:butt;stroke-linejoin:miter;stroke-miterlimit:10;stroke-dasharray:none;stroke-opacity:1"
             d="m 492.5,266.12 3.5,7 h -7 z" /><path
             id="path242"
             style="fill:#ffffff;fill-opacity:1;fill-rule:nonzero;stroke:none"
             d="m 300,346 v -26 h 160 v 26" /><path
             id="path244"
             style="fill:none;stroke:#000000;stroke-width:1;stroke-linecap:butt;stroke-linejoin:miter;stroke-miterlimit:10;stroke-dasharray:none;stroke-opacity:1"
             d="m 300,346 v -26 h 160 v 26" /><path
             id="path246"
             style="fill:none;stroke:#000000;stroke-width:1;stroke-linecap:butt;stroke-linejoin:miter;stroke-miterlimit:10;stroke-dasharray:none;stroke-opacity:1"
             d="m 300,346 v 8 h 160 v -8" /><path
             id="path248"
             style="fill:none;stroke:#000000;stroke-width:1;stroke-linecap:butt;stroke-linejoin:miter;stroke-miterlimit:10;stroke-dasharray:none;stroke-opacity:1"
             d="M 300,346 H 460" /></g><g
           transform="scale(3.0015535)"
           id="g250"><text
             id="text254"
             style="font-variant:normal;font-weight:bold;font-size:12px;font-family:Arimo;-inkscape-font-specification:Arimo-Bold;writing-mode:lr-tb;fill:#000000;fill-opacity:1;fill-rule:nonzero;stroke:none"
             transform="translate(357.33301,338)"><tspan
               id="tspan252"
               y="0"
               x="0 8.0039062 12 18.673828 23.34375 27.339844 30.673828 38.003906">Starting</tspan></text>
</g><g
           transform="matrix(3.0015535,0,0,3.0015535,1.5007768,1.5007768)"
           id="g256"><path
             id="path258"
             style="fill:none;stroke:#000000;stroke-width:1;stroke-linecap:butt;stroke-linejoin:miter;stroke-miterlimit:10;stroke-dasharray:none;stroke-opacity:1"
             d="M 300,350 H 460" /><path
             id="path260"
             style="fill:none;stroke:#000000;stroke-width:1;stroke-linecap:butt;stroke-linejoin:miter;stroke-miterlimit:10;stroke-dasharray:none;stroke-opacity:1"
             d="M 600,320 V 292.5 H 492.5 v -19.38" /><path
             id="path262"
             style="fill:none;stroke:#000000;stroke-width:1;stroke-linecap:butt;stroke-linejoin:miter;stroke-miterlimit:10;stroke-dasharray:none;stroke-opacity:1"
             d="m 492.5,266.12 3.5,7 h -7 z" /><path
             id="path264"
             style="fill:#ffffff;fill-opacity:1;fill-rule:nonzero;stroke:none"
             d="m 520,346 v -26 h 160 v 26" /><path
             id="path266"
             style="fill:none;stroke:#000000;stroke-width:1;stroke-linecap:butt;stroke-linejoin:miter;stroke-miterlimit:10;stroke-dasharray:none;stroke-opacity:1"
             d="m 520,346 v -26 h 160 v 26" /><path
             id="path268"
             style="fill:none;stroke:#000000;stroke-width:1;stroke-linecap:butt;stroke-linejoin:miter;stroke-miterlimit:10;stroke-dasharray:none;stroke-opacity:1"
             d="m 520,346 v 8 h 160 v -8" /><path
             id="path270"
             style="fill:none;stroke:#000000;stroke-width:1;stroke-linecap:butt;stroke-linejoin:miter;stroke-miterlimit:10;stroke-dasharray:none;stroke-opacity:1"
             d="M 520,346 H 680" /></g><g
           transform="scale(3.0015535)"
           id="g272"><text
             id="text276"
             style="font-variant:normal;font-weight:bold;font-size:12px;font-family:Arimo;-inkscape-font-specification:Arimo-Bold;writing-mode:lr-tb;fill:#000000;fill-opacity:1;fill-rule:nonzero;stroke:none"
             transform="translate(575.6748,338)"><tspan
               id="tspan274"
               y="0"
               x="0 8.6660156 15.996094 23.326172 30.65625 33.990234 41.320312">Running</tspan></text>
</g><g
           transform="matrix(3.0015535,0,0,3.0015535,1.5007768,1.5007768)"
           id="g278"><path
             id="path280"
             style="fill:none;stroke:#000000;stroke-width:1;stroke-linecap:butt;stroke-linejoin:miter;stroke-miterlimit:10;stroke-dasharray:none;stroke-opacity:1"
             d="M 520,350 H 680" /><path
             id="path282"
             style="fill:none;stroke:#000000;stroke-width:1;stroke-linecap:butt;stroke-linejoin:miter;stroke-miterlimit:10;stroke-dasharray:none;stroke-opacity:1"
             d="m 270,168 h 45 v 17 h 45" /></g></g></g></g></svg>